<?xml version="1.0" encoding="UTF-8"?>
<svg xmlns="http://www.w3.org/2000/svg" xmlns:xlink="http://www.w3.org/1999/xlink" width="64pt" height="64pt" viewBox="0 0 64 64" version="1.1">
<g id="surface1">
<path style=" stroke:none;fill-rule:nonzero;fill:#FFF;fill-opacity:1;" d="M 32 10 C 24.289063 10 18 16.289063 18 24 C 18 28.8125 20.460938 33.078125 24.179688 35.59375 C 17.03125 38.648438 12 45.75 12 54 L 16 54 C 16 46.945313 20.539063 40.992188 26.851563 38.851563 L 31.5 43.5 L 28 54 L 32 58 L 36 54 L 32.5 43.5 L 37.148438 38.851563 C 43.460938 40.992188 48 46.945313 48 54 L 52 54 C 52 45.75 46.96875 38.648438 39.820313 35.59375 C 43.539063 33.078125 46 28.8125 46 24 C 46 16.289063 39.710938 10 32 10 Z M 32 14 C 37.546875 14 42 18.453125 42 24 C 42 29.546875 37.546875 34 32 34 C 26.453125 34 22 29.546875 22 24 C 22 18.453125 26.453125 14 32 14 Z M 48 16.140625 L 48 20.210938 C 51.609375 20.90625 54 23.492188 54 27 C 54 30.507813 51.609375 33.09375 48 33.789063 L 48 38.1875 C 53.59375 39.171875 58 44.179688 58 50 L 62 50 C 62 43.960938 58.4375 38.578125 53.351563 35.867188 C 56.226563 33.914063 58 30.765625 58 27 C 58 21.257813 53.898438 16.945313 48 16.140625 Z M 16 16.15625 C 10.179688 16.976563 6 21.359375 6 27 C 6 30.765625 7.773438 33.914063 10.648438 35.867188 C 5.5625 38.578125 2 43.960938 2 50 L 6 50 C 6 44.179688 10.40625 39.171875 16 38.1875 L 16 33.789063 C 12.390625 33.09375 10 30.507813 10 27 C 10 23.554688 12.4375 20.9375 16 20.21875 Z "/>
</g>
</svg>
