<?xml version="1.0" encoding="UTF-8"?>
<svg xmlns="http://www.w3.org/2000/svg" xmlns:xlink="http://www.w3.org/1999/xlink" width="52pt" height="52pt" viewBox="0 0 52 52" version="1.1">
<g id="surface1">
<path style=" stroke:none;fill-rule:nonzero;fill:#FFF;fill-opacity:1;" d="M 21.667969 0.371094 C 9.902344 0.371094 0.371094 4.617188 0.371094 9.847656 C 0.371094 15.082031 9.902344 19.328125 21.667969 19.328125 C 33.429688 19.328125 42.964844 15.082031 42.964844 9.847656 C 42.964844 4.617188 33.429688 0.371094 21.667969 0.371094 Z M 0.371094 12.433594 L 0.371094 19.695313 C 0.371094 24.9375 9.902344 29.175781 21.667969 29.175781 C 24.453125 29.175781 27.105469 28.929688 29.546875 28.5 L 29.546875 25.605469 C 29.546875 23.550781 30.59375 21.734375 32.191406 20.683594 C 29.082031 21.464844 25.507813 21.914063 21.667969 21.914063 C 9.902344 21.914063 0.371094 17.671875 0.371094 12.433594 Z M 42.964844 12.433594 C 42.964844 15.351563 39.980469 17.957031 35.332031 19.695313 C 35.363281 19.695313 35.417969 19.695313 35.453125 19.695313 L 39.394531 19.695313 C 40.664063 19.695313 41.808594 20.113281 42.78125 20.804688 C 42.871094 20.441406 42.964844 20.074219 42.964844 19.695313 C 42.964844 17.773438 42.964844 15.75 42.964844 12.433594 Z M 0.371094 22.28125 L 0.371094 29.546875 C 0.371094 34.484375 8.855469 38.515625 19.695313 38.964844 L 19.695313 35.453125 C 19.695313 34.046875 20.226563 32.777344 21.050781 31.761719 C 9.585938 31.613281 0.371094 27.421875 0.371094 22.28125 Z M 35.453125 23.636719 C 34.371094 23.636719 33.484375 24.519531 33.484375 25.605469 L 33.484375 33.484375 L 25.605469 33.484375 C 24.519531 33.484375 23.636719 34.371094 23.636719 35.453125 L 23.636719 39.394531 C 23.636719 40.480469 24.519531 41.363281 25.605469 41.363281 L 33.484375 41.363281 L 33.484375 49.242188 C 33.484375 50.328125 34.371094 51.210938 35.453125 51.210938 L 39.394531 51.210938 C 40.480469 51.210938 41.363281 50.328125 41.363281 49.242188 L 41.363281 41.363281 L 49.242188 41.363281 C 50.328125 41.363281 51.210938 40.480469 51.210938 39.394531 L 51.210938 35.453125 C 51.210938 34.371094 50.328125 33.484375 49.242188 33.484375 L 41.363281 33.484375 L 41.363281 25.605469 C 41.363281 24.519531 40.480469 23.636719 39.394531 23.636719 Z M 0.371094 32.128906 L 0.371094 39.394531 C 0.371094 44.632813 9.902344 48.875 21.667969 48.875 C 24.453125 48.875 27.105469 48.625 29.546875 48.195313 L 29.546875 45.304688 L 25.605469 45.304688 C 23.121094 45.304688 21.003906 43.78125 20.128906 41.609375 C 9.085938 41.261719 0.371094 37.140625 0.371094 32.128906 Z "/>
</g>
</svg>
