<?xml version="1.0" encoding="UTF-8"?>
<svg xmlns="http://www.w3.org/2000/svg" xmlns:xlink="http://www.w3.org/1999/xlink" width="50pt" height="50pt" viewBox="0 0 50 50" version="1.1">
<g id="surface1">
<path style=" stroke:none;fill-rule:nonzero;fill:#5B5B5B;fill-opacity:1;" d="M 11.90625 1.984375 C 9.167969 1.984375 6.945313 4.207031 6.945313 6.945313 C 6.945313 9.679688 9.167969 11.90625 11.90625 11.90625 C 14.640625 11.90625 16.863281 9.679688 16.863281 6.945313 C 16.863281 4.207031 14.640625 1.984375 11.90625 1.984375 Z M 28.769531 1.984375 L 28.769531 3.96875 L 18.167969 3.96875 C 18.597656 4.871094 18.847656 5.878906 18.847656 6.945313 C 18.847656 8.421875 18.394531 9.785156 17.609375 10.914063 L 28.273438 10.914063 C 30.734375 10.914063 32.738281 12.917969 32.738281 15.378906 C 32.738281 17.835938 30.734375 19.839844 28.273438 19.839844 L 19.839844 19.839844 L 19.839844 33.730469 L 46.628906 33.730469 C 47.175781 33.730469 47.617188 33.289063 47.617188 32.738281 L 47.617188 4.960938 C 47.617188 4.414063 47.175781 3.96875 46.628906 3.96875 L 30.753906 3.96875 L 30.753906 1.984375 Z M 7.441406 12.898438 C 4.433594 12.898438 1.984375 15.347656 1.984375 18.351563 L 1.984375 31.746094 C 1.984375 32.84375 2.875 33.730469 3.96875 33.730469 C 5.0625 33.730469 5.953125 32.84375 5.953125 31.746094 L 5.953125 20.398438 C 5.953125 20.132813 6.179688 19.902344 6.449219 19.902344 C 6.714844 19.902344 6.945313 20.132813 6.945313 20.398438 L 6.945313 44.953125 C 6.945313 46.503906 7.777344 47.617188 9.332031 47.617188 C 10.800781 47.617188 11.90625 46.480469 11.90625 44.953125 L 11.90625 33.421875 C 11.90625 33.144531 12.125 32.925781 12.402344 32.925781 C 12.675781 32.925781 12.898438 33.144531 12.898438 33.421875 L 12.898438 45.230469 C 12.902344 45.238281 12.925781 45.222656 12.929688 45.230469 C 13.0625 46.605469 14.097656 47.617188 15.46875 47.617188 C 17.019531 47.617188 17.855469 46.503906 17.855469 44.953125 L 17.855469 17.855469 L 28.273438 17.855469 C 29.644531 17.855469 30.753906 16.75 30.753906 15.378906 C 30.753906 14.003906 29.644531 12.898438 28.273438 12.898438 L 15.40625 12.898438 L 11.90625 19.839844 L 8.464844 12.898438 Z M 27.28125 35.714844 L 22.816406 44.644531 L 24.800781 44.644531 L 29.265625 35.714844 Z M 30.257813 35.714844 L 34.722656 44.644531 L 36.707031 44.644531 L 32.242188 35.714844 Z "/>
</g>
</svg>
