<?xml version="1.0" encoding="UTF-8"?>
<svg xmlns="http://www.w3.org/2000/svg" xmlns:xlink="http://www.w3.org/1999/xlink" width="50pt" height="50pt" viewBox="0 0 50 50" version="1.1">
<g id="surface1">
<path style=" stroke:none;fill-rule:nonzero;fill:#FFF;fill-opacity:1;" d="M 47.617188 6.945313 L 1.984375 6.945313 C 1.4375 6.945313 0.992188 7.390625 0.992188 7.9375 L 0.992188 42.660156 C 0.992188 43.207031 1.4375 43.652344 1.984375 43.652344 L 47.617188 43.652344 C 48.164063 43.652344 48.609375 43.207031 48.609375 42.660156 L 48.609375 7.9375 C 48.609375 7.390625 48.164063 6.945313 47.617188 6.945313 Z M 15.871094 11.90625 C 15.871094 11.359375 16.320313 10.914063 16.863281 10.914063 L 31.746094 10.914063 C 32.292969 10.914063 32.738281 11.359375 32.738281 11.90625 C 32.738281 12.449219 32.292969 12.898438 31.746094 12.898438 L 28.769531 12.898438 L 28.769531 14.882813 L 20.832031 14.882813 L 20.832031 12.898438 L 17.855469 12.898438 L 17.855469 14.882813 C 17.855469 15.425781 17.410156 15.871094 16.863281 15.871094 C 16.320313 15.871094 15.871094 15.425781 15.871094 14.882813 Z M 29.761719 19.839844 C 29.761719 22.582031 27.542969 24.800781 24.800781 24.800781 C 22.0625 24.800781 19.839844 22.582031 19.839844 19.839844 C 19.839844 18.722656 20.210938 17.6875 20.832031 16.863281 L 28.769531 16.863281 C 29.394531 17.6875 29.761719 18.722656 29.761719 19.839844 Z M 14.882813 39.683594 L 7.9375 39.683594 L 7.9375 35.714844 L 14.882813 35.714844 Z M 23.808594 39.683594 L 16.863281 39.683594 L 16.863281 35.714844 L 23.808594 35.714844 Z M 32.738281 39.683594 L 25.792969 39.683594 L 25.792969 35.714844 L 32.738281 35.714844 Z M 34.550781 33.285156 C 34.375 33.558594 34.066406 33.730469 33.730469 33.730469 L 15.871094 33.730469 C 15.535156 33.730469 15.230469 33.558594 15.050781 33.285156 C 14.863281 33.003906 14.832031 32.660156 14.957031 32.351563 C 15.058594 32.121094 17.429688 26.785156 24.800781 26.785156 C 32.171875 26.785156 34.542969 32.121094 34.644531 32.351563 C 34.773438 32.660156 34.742188 33.003906 34.550781 33.285156 Z M 41.667969 39.683594 L 34.722656 39.683594 L 34.722656 35.714844 L 41.667969 35.714844 Z "/>
</g>
</svg>
