<?xml version="1.0" encoding="UTF-8"?>
<svg xmlns="http://www.w3.org/2000/svg" xmlns:xlink="http://www.w3.org/1999/xlink" width="50pt" height="50pt" viewBox="0 0 50 50" version="1.1">
<g id="surface1">
<path style=" stroke:none;fill-rule:nonzero;fill:#FFF;fill-opacity:1;" d="M 26.785156 43.652344 L 22.816406 43.652344 C 22.269531 43.652344 21.824219 43.210938 21.824219 42.660156 L 21.824219 29.984375 L 10.808594 36.28125 C 10.339844 36.550781 9.738281 36.386719 9.464844 35.917969 L 7.480469 32.546875 C 7.34375 32.320313 7.304688 32.046875 7.375 31.792969 C 7.441406 31.535156 7.605469 31.320313 7.835938 31.1875 L 18.851563 24.800781 L 7.835938 18.417969 C 7.605469 18.289063 7.441406 18.066406 7.375 17.8125 C 7.304688 17.554688 7.34375 17.285156 7.476563 17.054688 L 9.460938 13.683594 C 9.734375 13.214844 10.339844 13.054688 10.808594 13.328125 L 21.824219 19.621094 L 21.824219 6.945313 C 21.824219 6.398438 22.269531 5.953125 22.816406 5.953125 L 26.785156 5.953125 C 27.335938 5.953125 27.777344 6.398438 27.777344 6.945313 L 27.777344 19.621094 L 38.796875 13.328125 C 39.265625 13.054688 39.863281 13.214844 40.140625 13.683594 L 42.125 17.054688 C 42.257813 17.285156 42.296875 17.554688 42.230469 17.8125 C 42.164063 18.066406 41.996094 18.289063 41.765625 18.417969 L 30.75 24.800781 L 41.765625 31.183594 C 41.992188 31.320313 42.160156 31.535156 42.230469 31.792969 C 42.292969 32.046875 42.257813 32.320313 42.125 32.546875 L 40.140625 35.917969 C 39.863281 36.386719 39.265625 36.550781 38.796875 36.277344 L 27.777344 29.984375 L 27.777344 42.660156 C 27.777344 43.210938 27.335938 43.652344 26.785156 43.652344 Z "/>
</g>
</svg>
