<?xml version="1.0" encoding="UTF-8"?>
<svg xmlns="http://www.w3.org/2000/svg" xmlns:xlink="http://www.w3.org/1999/xlink" width="50pt" height="50pt" viewBox="0 0 50 50" version="1.1">
<g id="surface1">
<path style=" stroke:none;fill-rule:nonzero;fill:#FFF;fill-opacity:1;" d="M 4.960938 3.96875 C 4.414063 3.96875 3.96875 4.414063 3.96875 4.960938 L 3.96875 19.839844 C 3.96875 20.386719 4.414063 20.832031 4.960938 20.832031 L 10.914063 20.832031 L 10.914063 28.769531 L 10.0625 28.769531 C 10.011719 28.761719 9.957031 28.757813 9.902344 28.757813 C 9.863281 28.761719 9.828125 28.765625 9.789063 28.769531 L 4.960938 28.769531 C 4.414063 28.769531 3.96875 29.214844 3.96875 29.761719 L 3.96875 39.53125 C 3.949219 39.640625 3.949219 39.753906 3.96875 39.859375 L 3.96875 44.492188 C 3.914063 44.808594 4.019531 45.132813 4.242188 45.359375 C 4.472656 45.585938 4.792969 45.6875 5.113281 45.636719 L 19.839844 45.636719 C 20.386719 45.636719 20.832031 45.1875 20.832031 44.644531 L 20.832031 39.804688 C 20.84375 39.71875 20.84375 39.625 20.832031 39.535156 L 20.832031 38.691406 L 28.769531 38.691406 L 28.769531 44.644531 C 28.769531 45.1875 29.214844 45.636719 29.761719 45.636719 L 44.644531 45.636719 C 45.1875 45.636719 45.636719 45.1875 45.636719 44.644531 L 45.636719 29.761719 C 45.636719 29.214844 45.1875 28.769531 44.644531 28.769531 L 38.691406 28.769531 L 38.691406 20.832031 L 44.644531 20.832031 C 45.1875 20.832031 45.636719 20.386719 45.636719 19.839844 L 45.636719 4.960938 C 45.636719 4.414063 45.1875 3.96875 44.644531 3.96875 L 29.761719 3.96875 C 29.214844 3.96875 28.769531 4.414063 28.769531 4.960938 L 28.769531 10.914063 L 20.832031 10.914063 L 20.832031 4.960938 C 20.832031 4.414063 20.386719 3.96875 19.839844 3.96875 Z M 20.832031 12.898438 L 28.769531 12.898438 L 28.769531 19.839844 C 28.769531 20.386719 29.214844 20.832031 29.761719 20.832031 L 36.707031 20.832031 L 36.707031 28.769531 L 29.761719 28.769531 C 29.214844 28.769531 28.769531 29.214844 28.769531 29.761719 L 28.769531 36.707031 L 20.832031 36.707031 L 20.832031 34.847656 C 20.84375 34.757813 20.84375 34.664063 20.832031 34.574219 L 20.832031 29.761719 C 20.832031 29.214844 20.386719 28.769531 19.839844 28.769531 L 15.023438 28.769531 C 14.96875 28.761719 14.914063 28.757813 14.863281 28.757813 C 14.824219 28.761719 14.789063 28.765625 14.753906 28.769531 L 12.898438 28.769531 L 12.898438 20.832031 L 19.839844 20.832031 C 20.386719 20.832031 20.832031 20.386719 20.832031 19.839844 Z M 5.953125 30.753906 L 7.527344 30.753906 L 5.953125 32.328125 Z M 10.332031 30.753906 L 12.484375 30.753906 L 5.953125 37.289063 L 5.953125 35.132813 C 5.957031 35.128906 5.957031 35.128906 5.960938 35.125 Z M 15.292969 30.753906 L 17.445313 30.753906 L 5.953125 42.246094 L 5.953125 40.09375 Z M 18.847656 32.15625 L 18.847656 34.3125 L 9.617188 43.542969 C 9.582031 43.578125 9.546875 43.613281 9.519531 43.652344 L 7.355469 43.652344 Z M 18.847656 37.117188 L 18.847656 39.273438 L 14.574219 43.542969 C 14.542969 43.578125 14.507813 43.613281 14.480469 43.652344 L 12.316406 43.652344 Z M 18.847656 42.078125 L 18.847656 43.652344 L 17.277344 43.652344 Z "/>
</g>
</svg>
