<?xml version="1.0" encoding="UTF-8"?>
<svg xmlns="http://www.w3.org/2000/svg" xmlns:xlink="http://www.w3.org/1999/xlink" width="50pt" height="50pt" viewBox="0 0 50 50" version="1.1">
<g id="surface1">
<path style=" stroke:none;fill-rule:nonzero;fill:#5B5B5B;fill-opacity:1;" d="M 11.90625 0 C 10.820313 0 9.921875 0.898438 9.921875 1.984375 L 9.921875 3.96875 L 3.96875 3.96875 C 2.816406 3.96875 1.984375 4.800781 1.984375 5.953125 L 1.984375 12.898438 L 47.617188 12.898438 L 47.617188 5.953125 C 47.617188 4.800781 46.785156 3.96875 45.636719 3.96875 L 39.683594 3.96875 L 39.683594 1.984375 C 39.683594 0.898438 38.785156 0 37.699219 0 L 35.714844 0 C 34.628906 0 33.730469 0.898438 33.730469 1.984375 L 33.730469 3.96875 L 15.871094 3.96875 L 15.871094 1.984375 C 15.871094 0.898438 14.972656 0 13.890625 0 Z M 11.90625 1.984375 L 13.890625 1.984375 L 13.890625 7.9375 L 11.90625 7.9375 Z M 35.714844 1.984375 L 37.699219 1.984375 L 37.699219 7.9375 L 35.714844 7.9375 Z M 1.984375 14.882813 L 1.984375 45.636719 C 1.984375 46.730469 2.871094 47.617188 3.96875 47.617188 L 45.636719 47.617188 C 46.730469 47.617188 47.617188 46.730469 47.617188 45.636719 L 47.617188 14.882813 Z M 16.863281 22.816406 C 17.117188 22.816406 17.371094 22.914063 17.566406 23.109375 C 17.953125 23.496094 17.953125 24.125 17.566406 24.511719 L 13.308594 28.769531 L 36.296875 28.769531 L 32.035156 24.511719 C 31.648438 24.125 31.648438 23.496094 32.035156 23.109375 C 32.425781 22.71875 33.050781 22.71875 33.441406 23.109375 L 40.09375 29.761719 L 33.441406 36.414063 C 33.246094 36.609375 32.992188 36.707031 32.738281 36.707031 C 32.480469 36.707031 32.230469 36.609375 32.035156 36.414063 C 31.648438 36.027344 31.648438 35.402344 32.035156 35.011719 L 36.296875 30.753906 L 13.308594 30.753906 L 17.566406 35.011719 C 17.953125 35.402344 17.953125 36.027344 17.566406 36.414063 C 17.371094 36.609375 17.121094 36.707031 16.863281 36.707031 C 16.609375 36.707031 16.355469 36.609375 16.164063 36.414063 L 9.511719 29.761719 L 16.164063 23.109375 C 16.355469 22.914063 16.613281 22.816406 16.863281 22.816406 Z "/>
</g>
</svg>
