<?xml version="1.0" encoding="UTF-8"?>
<svg xmlns="http://www.w3.org/2000/svg" xmlns:xlink="http://www.w3.org/1999/xlink" width="50pt" height="50pt" viewBox="0 0 50 50" version="1.1">
<g id="surface1">
<path style=" stroke:none;fill-rule:nonzero;fill:#5B5B5B;fill-opacity:1;" d="M 9.921875 0 C 9.375 0 8.929688 0.445313 8.929688 0.992188 L 8.929688 4.648438 C 9.832031 4.21875 10.839844 3.96875 11.90625 3.96875 C 15.734375 3.96875 18.847656 7.082031 18.847656 10.914063 C 18.847656 12.113281 18.550781 13.246094 18.011719 14.230469 L 21.144531 13.578125 L 25.019531 8.554688 C 25.8125 7.5 27.0625 6.914063 28.429688 6.914063 C 29.382813 6.914063 30.3125 7.214844 31.0625 7.78125 C 32 8.488281 32.582031 9.53125 32.707031 10.726563 C 32.824219 11.828125 32.511719 12.960938 31.839844 13.859375 L 26.910156 20.273438 C 26.289063 21.101563 25.234375 21.789063 24.089844 22.136719 L 20.832031 23.3125 L 20.832031 24.800781 L 32.738281 24.800781 L 32.738281 20.832031 L 41.574219 20.832031 L 42.660156 22.816406 L 41.574219 24.800781 L 47.617188 24.800781 L 47.617188 0.992188 C 47.617188 0.445313 47.175781 0 46.628906 0 Z M 11.90625 5.953125 C 9.164063 5.953125 6.945313 8.171875 6.945313 10.914063 C 6.945313 13.652344 9.164063 15.871094 11.90625 15.871094 C 14.644531 15.871094 16.863281 13.652344 16.863281 10.914063 C 16.863281 8.171875 14.644531 5.953125 11.90625 5.953125 Z M 28.429688 8.898438 C 27.691406 8.898438 27.015625 9.214844 26.601563 9.765625 L 22.257813 15.378906 L 15.347656 16.804688 L 9.144531 16.804688 C 6.5 16.804688 4.960938 18.339844 4.960938 20.988281 L 4.960938 31.0625 C 5.582031 30.867188 6.257813 30.753906 6.945313 30.753906 C 8.765625 30.753906 10.421875 31.519531 11.59375 32.738281 L 14.230469 32.707031 C 15.398438 31.5 17.039063 30.753906 18.847656 30.753906 L 18.847656 21.917969 L 23.46875 20.273438 C 24.226563 20.058594 24.921875 19.597656 25.296875 19.097656 L 30.257813 12.648438 C 30.617188 12.164063 30.820313 11.550781 30.753906 10.945313 C 30.6875 10.304688 30.378906 9.730469 29.886719 9.363281 C 29.472656 9.050781 28.957031 8.898438 28.429688 8.898438 Z M 20.832031 25.792969 L 20.832031 29.761719 L 48.609375 29.761719 C 49.160156 29.761719 49.601563 29.320313 49.601563 28.769531 L 49.601563 26.785156 C 49.601563 26.234375 49.160156 25.792969 48.609375 25.792969 Z M 6.945313 32.738281 C 4.484375 32.738281 2.480469 34.742188 2.480469 37.203125 C 2.480469 38.851563 3.40625 40.277344 4.742188 41.046875 C 2.265625 41.945313 0.496094 44.335938 0.496094 47.121094 L 0.496094 49.105469 C 0.496094 49.382813 0.71875 49.601563 0.992188 49.601563 L 48.609375 49.601563 C 48.886719 49.601563 49.105469 49.382813 49.105469 49.105469 L 49.105469 47.121094 C 49.105469 44.335938 47.335938 41.945313 44.859375 41.046875 C 46.195313 40.277344 47.121094 38.851563 47.121094 37.203125 C 47.121094 34.742188 45.121094 32.738281 42.660156 32.738281 C 40.199219 32.738281 38.195313 34.742188 38.195313 37.203125 C 38.195313 38.851563 39.121094 40.277344 40.457031 41.046875 C 38.773438 41.660156 37.402344 42.96875 36.707031 44.613281 C 36.007813 42.96875 34.640625 41.660156 32.957031 41.046875 C 34.292969 40.277344 35.21875 38.851563 35.21875 37.203125 C 35.21875 34.742188 33.214844 32.738281 30.753906 32.738281 C 28.292969 32.738281 26.289063 34.742188 26.289063 37.203125 C 26.289063 38.851563 27.214844 40.277344 28.554688 41.046875 C 26.867188 41.660156 25.5 42.96875 24.800781 44.613281 C 24.105469 42.96875 22.734375 41.660156 21.050781 41.046875 C 22.386719 40.277344 23.3125 38.851563 23.3125 37.203125 C 23.3125 34.742188 21.308594 32.738281 18.847656 32.738281 C 16.386719 32.738281 14.386719 34.742188 14.386719 37.203125 C 14.386719 38.851563 15.3125 40.277344 16.648438 41.046875 C 14.960938 41.660156 13.59375 42.96875 12.898438 44.613281 C 12.199219 42.96875 10.832031 41.660156 9.144531 41.046875 C 10.484375 40.277344 11.410156 38.851563 11.410156 37.203125 C 11.410156 34.742188 9.40625 32.738281 6.945313 32.738281 Z "/>
</g>
</svg>
