<?xml version="1.0" encoding="UTF-8"?>
<svg xmlns="http://www.w3.org/2000/svg" xmlns:xlink="http://www.w3.org/1999/xlink" width="50pt" height="50pt" viewBox="0 0 50 50" version="1.1">
<g id="surface1">
<path style=" stroke:none;fill-rule:nonzero;fill:#5B5B5B;fill-opacity:1;" d="M 2.976563 7.9375 C 2.429688 7.9375 1.984375 8.382813 1.984375 8.929688 L 1.984375 37.699219 L 10.914063 37.699219 L 10.914063 33.730469 L 21.730469 33.730469 L 22.816406 35.714844 L 21.730469 37.699219 L 47.617188 37.699219 L 47.617188 8.929688 C 47.617188 8.382813 47.175781 7.9375 46.628906 7.9375 Z M 38.84375 14.882813 C 39.097656 14.921875 39.335938 15.0625 39.496094 15.285156 C 39.8125 15.730469 39.726563 16.359375 39.28125 16.679688 L 25.390625 26.601563 C 25.023438 26.863281 24.527344 26.855469 24.179688 26.570313 L 18.816406 22.105469 L 11.5 27.589844 C 11.324219 27.726563 11.117188 27.777344 10.914063 27.777344 C 10.609375 27.777344 10.300781 27.632813 10.105469 27.375 C 9.777344 26.9375 9.886719 26.308594 10.324219 25.980469 L 18.261719 20.027344 C 18.628906 19.753906 19.117188 19.765625 19.46875 20.058594 L 24.863281 24.554688 L 38.101563 15.066406 C 38.324219 14.90625 38.59375 14.839844 38.84375 14.882813 Z M 0.992188 39.683594 C 0.445313 39.683594 0 40.125 0 40.675781 L 0 43.652344 C 0 44.199219 0.445313 44.644531 0.992188 44.644531 L 48.609375 44.644531 C 49.160156 44.644531 49.601563 44.199219 49.601563 43.652344 L 49.601563 40.675781 C 49.601563 40.125 49.160156 39.683594 48.609375 39.683594 Z "/>
</g>
</svg>
