<?xml version="1.0" encoding="UTF-8"?>
<svg xmlns="http://www.w3.org/2000/svg" xmlns:xlink="http://www.w3.org/1999/xlink" width="50pt" height="50pt" viewBox="0 0 50 50" version="1.1">
<g id="surface1">
<path style=" stroke:none;fill-rule:nonzero;fill:#5B5B5B;fill-opacity:1;" d="M 5.953125 5.953125 C 4.3125 5.953125 2.976563 7.289063 2.976563 8.929688 L 2.976563 13.890625 L 15.871094 13.890625 L 15.871094 5.953125 Z M 17.855469 5.953125 L 17.855469 13.890625 L 31.746094 13.890625 L 31.746094 5.953125 Z M 33.730469 5.953125 L 33.730469 13.890625 L 46.628906 13.890625 L 46.628906 8.929688 C 46.628906 7.289063 45.289063 5.953125 43.652344 5.953125 Z M 2.976563 15.871094 L 2.976563 23.808594 L 15.871094 23.808594 L 15.871094 15.871094 Z M 17.855469 15.871094 L 17.855469 23.808594 L 31.746094 23.808594 L 31.746094 15.871094 Z M 33.730469 15.871094 L 33.730469 23.808594 L 46.628906 23.808594 L 46.628906 15.871094 Z M 2.976563 25.792969 L 2.976563 33.730469 L 15.871094 33.730469 L 15.871094 25.792969 Z M 17.855469 25.792969 L 17.855469 33.730469 L 31.746094 33.730469 L 31.746094 25.792969 Z M 31.746094 33.730469 C 31.289063 34.335938 30.910156 35.011719 30.597656 35.714844 L 17.855469 35.714844 L 17.855469 43.652344 L 30.597656 43.652344 C 32.140625 47.140625 35.640625 49.601563 39.683594 49.601563 C 45.140625 49.601563 49.601563 45.140625 49.601563 39.683594 C 49.601563 36.921875 48.460938 34.417969 46.628906 32.613281 L 46.628906 25.792969 L 33.730469 25.792969 L 33.730469 31.777344 C 32.984375 32.339844 32.308594 32.984375 31.746094 33.730469 Z M 39.683594 31.746094 C 39.953125 31.746094 40.222656 31.75 40.488281 31.777344 C 40.582031 31.789063 40.675781 31.796875 40.769531 31.808594 C 40.828125 31.816406 40.890625 31.828125 40.953125 31.839844 C 41.238281 31.886719 41.515625 31.980469 41.789063 32.054688 C 41.796875 32.058594 41.8125 32.050781 41.820313 32.054688 C 41.828125 32.058594 41.84375 32.050781 41.851563 32.054688 C 41.914063 32.074219 41.976563 32.097656 42.039063 32.117188 C 42.285156 32.195313 42.515625 32.265625 42.75 32.367188 C 42.78125 32.378906 42.8125 32.386719 42.84375 32.398438 C 42.925781 32.433594 43.011719 32.480469 43.09375 32.519531 C 43.324219 32.632813 43.554688 32.761719 43.773438 32.894531 C 43.796875 32.910156 43.8125 32.941406 43.835938 32.957031 C 44.152344 33.148438 44.453125 33.339844 44.734375 33.574219 C 44.964844 33.765625 45.179688 33.980469 45.386719 34.195313 C 45.527344 34.34375 45.660156 34.472656 45.789063 34.628906 C 45.882813 34.742188 45.980469 34.851563 46.070313 34.96875 C 46.136719 35.058594 46.191406 35.15625 46.253906 35.25 C 46.382813 35.4375 46.515625 35.636719 46.628906 35.839844 L 46.628906 35.871094 C 47.25 37 47.617188 38.304688 47.617188 39.683594 C 47.617188 44.046875 44.046875 47.617188 39.683594 47.617188 C 36.761719 47.617188 34.210938 46.019531 32.832031 43.652344 C 32.660156 43.359375 32.496094 43.066406 32.367188 42.75 C 32.261719 42.507813 32.199219 42.265625 32.117188 42.007813 C 32.070313 41.855469 32.03125 41.699219 31.992188 41.542969 C 31.941406 41.328125 31.875 41.113281 31.839844 40.890625 C 31.828125 40.808594 31.820313 40.730469 31.808594 40.644531 C 31.769531 40.324219 31.746094 40.011719 31.746094 39.683594 C 31.746094 37.695313 32.507813 35.871094 33.730469 34.472656 L 33.730469 34.441406 C 33.910156 34.242188 34.121094 34.035156 34.320313 33.855469 C 34.425781 33.757813 34.519531 33.664063 34.628906 33.574219 C 34.679688 33.53125 34.734375 33.488281 34.785156 33.449219 C 34.910156 33.355469 35.027344 33.261719 35.15625 33.171875 C 35.21875 33.128906 35.28125 33.085938 35.34375 33.046875 C 35.433594 32.984375 35.523438 32.921875 35.621094 32.863281 C 35.855469 32.722656 36.117188 32.605469 36.367188 32.488281 C 36.597656 32.382813 36.835938 32.296875 37.078125 32.210938 C 37.121094 32.195313 37.160156 32.164063 37.203125 32.148438 C 37.488281 32.050781 37.800781 31.964844 38.101563 31.902344 C 38.609375 31.796875 39.144531 31.746094 39.683594 31.746094 Z M 38.691406 33.730469 L 38.691406 39.1875 L 35.125 41.851563 L 36.304688 43.464844 L 40.675781 40.179688 L 40.675781 33.730469 Z M 2.976563 35.714844 L 2.976563 42.660156 C 2.976563 43.210938 3.421875 43.652344 3.96875 43.652344 L 15.871094 43.652344 L 15.871094 35.714844 Z "/>
</g>
</svg>
