<svg xmlns="http://www.w3.org/2000/svg" width="29" height="29" viewBox="0 0 29 29">
    <g data-name="success icon">
        <g data-name="Ellipse 57" style="fill:#fff;stroke:#f97065;stroke-width:2px">
            <circle cx="14.5" cy="14.5" r="14.5" style="stroke:none"/>
            <circle cx="14.5" cy="14.5" r="13.5" style="fill:none"/>
        </g>
        <path d="M18.3 5.71a1 1 0 0 0-1.41 0L12 10.59 7.11 5.7A1 1 0 0 0 5.7 7.11L10.59 12 5.7 16.89a1 1 0 0 0 1.41 1.41L12 13.41l4.89 4.89a1 1 0 0 0 1.41-1.41L13.41 12l4.89-4.89a1 1 0 0 0 0-1.4z" transform="translate(2.304 2.5)" style="fill:#f97065;fill-rule:evenodd"/>
    </g>
</svg>
