<?xml version="1.0" encoding="UTF-8"?>
<svg xmlns="http://www.w3.org/2000/svg" xmlns:xlink="http://www.w3.org/1999/xlink" width="40px" height="40px" viewBox="0 0 52 52" version="1.1">
<g id="surface1">
<path style=" stroke:none;fill-rule:nonzero;fill:#FFF;fill-opacity:1;" d="M 22.257813 41.363281 C 13.988281 35.847656 6.5 27.183594 6.300781 26.789063 C 6.109375 26.589844 5.910156 26 5.910156 25.605469 C 5.910156 25.214844 6.109375 24.621094 6.300781 24.230469 C 6.5 23.835938 14.179688 15.164063 22.257813 9.648438 C 22.851563 9.257813 23.636719 9.257813 24.421875 9.457031 C 25.214844 10.046875 25.605469 10.632813 25.605469 11.425781 L 25.605469 18.710938 C 25.605469 18.710938 42.742188 19.695313 43.535156 20.289063 C 44.710938 21.074219 45.304688 23.636719 45.304688 25.605469 C 45.304688 27.777344 44.519531 29.9375 43.535156 30.730469 C 42.742188 31.316406 25.605469 32.5 25.605469 32.5 L 25.605469 39.785156 C 25.605469 40.578125 25.214844 41.164063 24.421875 41.5625 C 23.835938 41.957031 23.042969 41.757813 22.257813 41.363281 Z "/>
</g>
</svg>
