<?xml version="1.0" encoding="UTF-8"?>
<svg xmlns="http://www.w3.org/2000/svg" xmlns:xlink="http://www.w3.org/1999/xlink" width="50pt" height="50pt" viewBox="0 0 50 50" version="1.1">
<g id="surface1">
<path style=" stroke:none;fill-rule:nonzero;fill:#5B5B5B;fill-opacity:1;" d="M 16.863281 4.960938 C 15.558594 4.960938 14.777344 6.222656 14.011719 7.441406 C 13.707031 7.929688 13.128906 8.835938 12.898438 8.929688 L 2.976563 8.929688 C 1.335938 8.929688 0 10.265625 0 11.90625 L 0 38.691406 C 0 40.328125 1.335938 41.667969 2.976563 41.667969 L 46.628906 41.667969 C 48.265625 41.667969 49.601563 40.328125 49.601563 38.691406 L 49.601563 11.90625 C 49.601563 10.265625 48.265625 8.929688 46.628906 8.929688 L 36.738281 8.929688 C 36.460938 8.828125 35.894531 7.929688 35.589844 7.441406 C 34.828125 6.222656 34.042969 4.960938 32.738281 4.960938 Z M 24.800781 10.914063 C 31.914063 10.914063 37.699219 16.699219 37.699219 23.808594 C 37.699219 30.921875 31.914063 36.707031 24.800781 36.707031 C 17.691406 36.707031 11.90625 30.921875 11.90625 23.808594 C 11.90625 16.699219 17.691406 10.914063 24.800781 10.914063 Z M 24.800781 12.898438 C 18.785156 12.898438 13.890625 17.792969 13.890625 23.808594 C 13.890625 29.828125 18.785156 34.722656 24.800781 34.722656 C 30.820313 34.722656 35.714844 29.828125 35.714844 23.808594 C 35.714844 17.792969 30.820313 12.898438 24.800781 12.898438 Z M 7.9375 13.890625 L 8.929688 13.890625 C 10.023438 13.890625 10.914063 14.777344 10.914063 15.871094 C 10.914063 16.96875 10.023438 17.855469 8.929688 17.855469 L 7.9375 17.855469 C 6.839844 17.855469 5.953125 16.96875 5.953125 15.871094 C 5.953125 14.777344 6.839844 13.890625 7.9375 13.890625 Z M 24.800781 14.882813 C 29.726563 14.882813 33.730469 18.886719 33.730469 23.808594 C 33.730469 28.734375 29.726563 32.738281 24.800781 32.738281 C 19.878906 32.738281 15.871094 28.734375 15.871094 23.808594 C 15.871094 18.886719 19.878906 14.882813 24.800781 14.882813 Z M 24.800781 16.863281 C 20.972656 16.863281 17.855469 19.980469 17.855469 23.808594 C 17.855469 27.636719 20.972656 30.753906 24.800781 30.753906 C 28.628906 30.753906 31.746094 27.636719 31.746094 23.808594 C 31.746094 19.980469 28.628906 16.863281 24.800781 16.863281 Z "/>
</g>
</svg>
