<?xml version="1.0" encoding="UTF-8"?>
<svg xmlns="http://www.w3.org/2000/svg" xmlns:xlink="http://www.w3.org/1999/xlink" width="50pt" height="50pt" viewBox="0 0 50 50" version="1.1">
<g id="surface1">
<path style=" stroke:none;fill-rule:nonzero;fill:#8B8E98;fill-opacity:1;" d="M 24.117188 12.882813 L 9.484375 7.859375 C 9.171875 7.75 8.960938 7.457031 8.960938 7.121094 C 8.960938 6.789063 9.171875 6.492188 9.484375 6.382813 L 24.117188 1.359375 C 24.773438 1.132813 25.492188 1.132813 26.148438 1.359375 L 40.773438 6.382813 C 41.089844 6.492188 41.300781 6.789063 41.300781 7.121094 C 41.300781 7.457031 41.089844 7.75 40.773438 7.859375 L 26.148438 12.882813 C 25.492188 13.109375 24.773438 13.109375 24.117188 12.882813 Z "/>
<path style=" stroke:none;fill-rule:nonzero;fill:#8B8E98;fill-opacity:1;" d="M 47.65625 46.390625 C 47.65625 46.824219 47.304688 47.171875 46.875 47.171875 L 3.125 47.171875 C 2.695313 47.171875 2.34375 46.824219 2.34375 46.390625 L 2.34375 40.140625 C 2.363281 37.347656 3.96875 34.808594 6.484375 33.59375 L 17.476563 28.335938 C 19.46875 30.84375 22.09375 32.632813 25 32.632813 C 27.90625 32.632813 30.53125 30.84375 32.523438 28.335938 L 43.515625 33.59375 C 46.039063 34.8125 47.648438 37.363281 47.65625 40.164063 Z "/>
<path style=" stroke:none;fill-rule:nonzero;fill:#7E8189;fill-opacity:1;" d="M 44.53125 43.75 L 5.46875 43.75 C 3.742188 43.75 2.34375 45.148438 2.34375 46.875 C 2.34375 47.304688 2.695313 47.65625 3.125 47.65625 L 46.875 47.65625 C 47.304688 47.65625 47.65625 47.304688 47.65625 46.875 C 47.65625 45.148438 46.257813 43.75 44.53125 43.75 Z "/>
<path style=" stroke:none;fill-rule:nonzero;fill:#72CAAF;fill-opacity:1;" d="M 25 33.539063 C 22.515625 33.539063 20.25 31.976563 18.515625 29.6875 L 16.40625 29.6875 L 22.65625 47.65625 L 27.34375 47.65625 L 33.59375 29.6875 L 31.484375 29.6875 C 29.75 31.945313 27.484375 33.539063 25 33.539063 Z "/>
<path style=" stroke:none;fill-rule:nonzero;fill:#7DD8BA;fill-opacity:1;" d="M 25 36.71875 C 28.203125 36.71875 31.109375 35.0625 33.257813 32.375 C 33.558594 32.003906 33.671875 31.511719 33.5625 31.046875 C 33.457031 30.582031 33.140625 30.191406 32.710938 29.984375 L 32.53125 29.898438 C 30.539063 32.40625 27.914063 34.195313 25.007813 34.195313 C 22.101563 34.195313 19.476563 32.40625 17.484375 29.898438 L 17.304688 29.984375 C 16.875 30.191406 16.558594 30.582031 16.453125 31.046875 C 16.34375 31.511719 16.457031 32.003906 16.757813 32.375 C 18.890625 35.0625 21.796875 36.71875 25 36.71875 Z "/>
<path style=" stroke:none;fill-rule:nonzero;fill:#989BA3;fill-opacity:1;" d="M 16.40625 28.5625 C 16.40625 28.90625 22.65625 47.65625 22.65625 47.65625 L 19.1875 47.65625 L 12.5 38.28125 L 14.84375 35.15625 L 14.0625 28.90625 Z "/>
<path style=" stroke:none;fill-rule:nonzero;fill:#989BA3;fill-opacity:1;" d="M 33.59375 28.5625 C 33.59375 28.90625 26.5625 47.65625 26.5625 47.65625 L 30.03125 47.65625 L 36.71875 38.28125 L 35.15625 35.15625 L 35.9375 28.90625 Z "/>
<path style=" stroke:none;fill-rule:nonzero;fill:#FAEFDE;fill-opacity:1;" d="M 34.882813 18.210938 C 34.882813 17.84375 34.835938 15.171875 34.78125 14.84375 L 15.25 14.84375 C 15.203125 15.179688 15.15625 17.867188 15.140625 18.210938 C 15.125 18.554688 13.640625 18.765625 13.640625 18.765625 C 13.453125 18.820313 13.078125 19.828125 13.492188 21.367188 C 13.90625 22.90625 14.679688 23.53125 14.921875 23.53125 C 15.28125 23.539063 15.601563 23.777344 15.703125 24.125 C 17.09375 28.8125 20.734375 33.539063 25.015625 33.539063 C 29.296875 33.539063 32.9375 28.804688 34.328125 24.125 C 34.4375 23.78125 34.75 23.542969 35.109375 23.53125 C 35.351563 23.53125 36.132813 22.890625 36.539063 21.367188 C 36.945313 19.84375 36.585938 18.046875 36.390625 17.984375 C 36.367188 17.96875 34.898438 18.507813 34.882813 18.210938 Z "/>
<path style=" stroke:none;fill-rule:nonzero;fill:#7E8189;fill-opacity:1;" d="M 35.9375 14.226563 C 35.957031 14.382813 35.90625 14.539063 35.800781 14.65625 C 35.695313 14.773438 35.546875 14.84375 35.390625 14.84375 L 29.773438 14.84375 L 25 17.523438 L 20.273438 14.84375 L 14.617188 14.84375 C 14.460938 14.84375 14.308594 14.773438 14.207031 14.65625 C 14.101563 14.539063 14.054688 14.382813 14.070313 14.226563 L 14.992188 9.789063 L 23.828125 12.953125 C 24.546875 13.402344 25.453125 13.402344 26.171875 12.953125 L 35.015625 9.789063 Z "/>
<path style=" stroke:none;fill-rule:nonzero;fill:#F9E3AE;fill-opacity:1;" d="M 41.40625 14.648438 L 39.84375 16.992188 L 38.28125 14.648438 L 38.28125 12.695313 L 39.84375 11.914063 L 41.40625 12.695313 Z "/>
<path style=" stroke:none;fill-rule:nonzero;fill:#8D6C9F;fill-opacity:1;" d="M 36.71875 42.1875 C 36.289063 42.1875 35.9375 42.539063 35.9375 42.96875 L 35.9375 44.53125 C 35.9375 44.960938 36.289063 45.3125 36.71875 45.3125 C 37.148438 45.3125 37.5 44.960938 37.5 44.53125 L 37.5 42.96875 C 37.5 42.539063 37.148438 42.1875 36.71875 42.1875 Z "/>
<path style=" stroke:none;fill-rule:nonzero;fill:#8D6C9F;fill-opacity:1;" d="M 40.625 42.1875 C 40.195313 42.1875 39.84375 42.539063 39.84375 42.96875 L 39.84375 44.53125 C 39.84375 44.960938 40.195313 45.3125 40.625 45.3125 C 41.054688 45.3125 41.40625 44.960938 41.40625 44.53125 L 41.40625 42.96875 C 41.40625 42.539063 41.054688 42.1875 40.625 42.1875 Z "/>
<path style=" stroke:none;fill-rule:nonzero;fill:#8D6C9F;fill-opacity:1;" d="M 43.75 42.96875 L 43.75 44.53125 C 43.75 44.960938 44.101563 45.3125 44.53125 45.3125 C 44.960938 45.3125 45.3125 44.960938 45.3125 44.53125 L 45.3125 42.96875 C 45.3125 42.539063 44.960938 42.1875 44.53125 42.1875 C 44.101563 42.1875 43.75 42.539063 43.75 42.96875 Z "/>
<path style=" stroke:none;fill-rule:nonzero;fill:#8D6C9F;fill-opacity:1;" d="M 13.28125 42.1875 C 12.851563 42.1875 12.5 42.539063 12.5 42.96875 L 12.5 44.53125 C 12.5 44.960938 12.851563 45.3125 13.28125 45.3125 C 13.710938 45.3125 14.0625 44.960938 14.0625 44.53125 L 14.0625 42.96875 C 14.0625 42.539063 13.710938 42.1875 13.28125 42.1875 Z "/>
<path style=" stroke:none;fill-rule:nonzero;fill:#8D6C9F;fill-opacity:1;" d="M 9.375 42.1875 C 8.945313 42.1875 8.59375 42.539063 8.59375 42.96875 L 8.59375 44.53125 C 8.59375 44.960938 8.945313 45.3125 9.375 45.3125 C 9.804688 45.3125 10.15625 44.960938 10.15625 44.53125 L 10.15625 42.96875 C 10.15625 42.539063 9.804688 42.1875 9.375 42.1875 Z "/>
<path style=" stroke:none;fill-rule:nonzero;fill:#8D6C9F;fill-opacity:1;" d="M 5.46875 42.1875 C 5.039063 42.1875 4.6875 42.539063 4.6875 42.96875 L 4.6875 44.53125 C 4.6875 44.960938 5.039063 45.3125 5.46875 45.3125 C 5.898438 45.3125 6.25 44.960938 6.25 44.53125 L 6.25 42.96875 C 6.25 42.539063 5.898438 42.1875 5.46875 42.1875 Z "/>
<path style=" stroke:none;fill-rule:nonzero;fill:#8D6C9F;fill-opacity:1;" d="M 43.554688 32.328125 L 33.90625 27.710938 C 34.410156 26.777344 34.828125 25.796875 35.15625 24.789063 C 36.117188 24.429688 36.992188 23.226563 37.40625 21.664063 C 37.648438 20.816406 37.699219 19.925781 37.546875 19.054688 C 37.464844 18.242188 36.921875 17.554688 36.148438 17.289063 C 36.054688 17.265625 35.957031 17.25 35.859375 17.242188 C 35.859375 16.390625 35.804688 15.679688 35.757813 15.359375 C 36.25 15.019531 36.511719 14.429688 36.421875 13.835938 L 35.9375 10.359375 L 39.0625 9.273438 L 39.0625 11.304688 C 38.148438 12.128906 37.589844 13.273438 37.5 14.5 C 37.5 16.382813 39.195313 17.820313 39.265625 17.882813 C 39.558594 18.128906 39.980469 18.128906 40.273438 17.882813 C 40.34375 17.820313 42.039063 16.382813 42.039063 14.5 C 41.957031 13.351563 41.453125 12.269531 40.625 11.46875 L 40.625 8.734375 L 41.03125 8.59375 C 41.660156 8.378906 42.082031 7.78125 42.082031 7.117188 C 42.082031 6.453125 41.660156 5.859375 41.03125 5.640625 L 26.398438 0.617188 C 25.578125 0.335938 24.683594 0.335938 23.859375 0.617188 L 9.234375 5.640625 C 8.605469 5.859375 8.183594 6.453125 8.183594 7.117188 C 8.183594 7.78125 8.605469 8.378906 9.234375 8.59375 L 14.34375 10.351563 L 13.804688 13.867188 C 13.734375 14.316406 13.867188 14.773438 14.164063 15.117188 L 14.265625 15.210938 C 14.265625 15.210938 14.265625 15.210938 14.265625 15.265625 C 14.21875 15.546875 14.179688 16.195313 14.140625 17.273438 C 14.042969 17.277344 13.945313 17.292969 13.851563 17.320313 C 13.082031 17.585938 12.539063 18.277344 12.460938 19.085938 C 12.3125 19.957031 12.359375 20.847656 12.601563 21.695313 C 13.023438 23.257813 13.898438 24.429688 14.851563 24.820313 C 15.1875 25.832031 15.605469 26.804688 16.109375 27.742188 L 6.445313 32.328125 C 3.46875 33.765625 1.574219 36.773438 1.5625 40.078125 L 1.5625 46.09375 C 1.5625 47.386719 2.613281 48.4375 3.90625 48.4375 L 46.09375 48.4375 C 47.386719 48.4375 48.4375 47.386719 48.4375 46.09375 L 48.4375 40.078125 C 48.425781 36.773438 46.53125 33.765625 43.554688 32.328125 Z M 39.765625 16.40625 C 39.304688 15.871094 39.035156 15.203125 38.984375 14.5 C 39.035156 13.796875 39.304688 13.128906 39.765625 12.59375 C 40.222656 13.128906 40.496094 13.796875 40.546875 14.5 C 40.496094 15.203125 40.222656 15.871094 39.765625 16.40625 Z M 34.53125 35.625 L 36.507813 38.28125 L 29.867188 46.398438 C 29.753906 46.535156 29.695313 46.699219 29.6875 46.875 L 28.125 46.875 L 34.140625 29.578125 L 35.054688 30.015625 L 34.375 35.046875 C 34.347656 35.253906 34.40625 35.460938 34.53125 35.625 Z M 19.921875 46.875 L 13.476563 38.28125 L 15.46875 35.625 C 15.589844 35.457031 15.644531 35.25 15.617188 35.046875 L 14.898438 30.015625 L 15.8125 29.578125 L 21.828125 46.875 Z M 23.390625 46.617188 L 17.65625 30.125 C 19.585938 32.601563 22.15625 34.375 25 34.375 C 27.84375 34.375 30.414063 32.601563 32.34375 30.125 L 26.609375 46.617188 C 26.582031 46.699219 26.5625 46.785156 26.5625 46.875 L 23.4375 46.875 C 23.4375 46.785156 23.417969 46.699219 23.390625 46.617188 Z M 24.367188 2.085938 C 24.859375 1.917969 25.398438 1.917969 25.890625 2.085938 L 40.523438 7.117188 L 25.890625 12.140625 C 25.398438 12.3125 24.859375 12.3125 24.367188 12.140625 L 9.734375 7.117188 Z M 23.859375 13.609375 C 24.683594 13.890625 25.578125 13.890625 26.398438 13.609375 L 34.375 10.875 L 34.875 14.109375 L 31.109375 14.109375 C 30.023438 14.109375 28.957031 14.367188 27.984375 14.851563 L 25.335938 16.171875 C 25.117188 16.28125 24.859375 16.28125 24.640625 16.171875 L 22.007813 14.84375 C 21.011719 14.355469 19.914063 14.101563 18.804688 14.101563 L 15.351563 14.101563 L 15.84375 10.867188 Z M 15.445313 23.34375 C 15.21875 23.34375 14.476563 22.734375 14.09375 21.296875 C 13.914063 20.683594 13.875 20.039063 13.976563 19.40625 C 14.0625 18.96875 14.21875 18.84375 14.234375 18.835938 C 14.3125 18.847656 14.382813 18.882813 14.445313 18.929688 C 14.679688 19.070313 14.96875 19.078125 15.210938 18.949219 C 15.449219 18.820313 15.609375 18.574219 15.625 18.304688 L 15.625 17.765625 C 15.625 17.242188 15.679688 16.09375 15.726563 15.664063 L 18.820313 15.664063 C 19.667969 15.664063 20.507813 15.863281 21.265625 16.242188 L 23.90625 17.5625 C 24.566406 17.890625 25.34375 17.890625 26 17.5625 L 28.648438 16.242188 C 29.417969 15.839844 30.273438 15.632813 31.140625 15.625 L 34.234375 15.625 C 34.273438 16.007813 34.3125 17.1875 34.328125 17.671875 C 34.328125 17.9375 34.328125 18.15625 34.328125 18.273438 C 34.339844 18.550781 34.503906 18.800781 34.75 18.929688 C 35 19.054688 35.296875 19.042969 35.53125 18.890625 C 35.59375 18.84375 35.660156 18.8125 35.734375 18.796875 C 37.140625 19.4375 35.914063 18.9375 36 19.367188 C 36.125 20.007813 36.101563 20.667969 35.9375 21.296875 C 35.554688 22.734375 34.8125 23.34375 34.585938 23.34375 C 34.226563 23.332031 33.90625 23.5625 33.804688 23.90625 C 32.492188 28.328125 29.046875 32.8125 25 32.8125 C 20.953125 32.8125 17.507813 28.328125 16.195313 23.90625 C 16.097656 23.570313 15.792969 23.34375 15.445313 23.34375 Z M 3.125 46.09375 L 3.125 40.078125 C 3.125 37.367188 4.679688 34.902344 7.125 33.734375 L 13.421875 30.71875 L 14.023438 34.9375 L 11.875 37.8125 C 11.667969 38.089844 11.667969 38.472656 11.875 38.75 L 17.96875 46.875 L 3.90625 46.875 C 3.476563 46.875 3.125 46.523438 3.125 46.09375 Z M 46.875 46.09375 C 46.875 46.523438 46.523438 46.875 46.09375 46.875 L 31.476563 46.875 L 38.101563 38.773438 C 38.320313 38.492188 38.320313 38.09375 38.101563 37.8125 L 35.9375 34.945313 L 36.539063 30.726563 L 42.835938 33.742188 C 45.292969 34.898438 46.867188 37.363281 46.875 40.078125 Z "/>
<path style=" stroke:none;fill-rule:nonzero;fill:#8D6C9F;fill-opacity:1;" d="M 25.132813 7.898438 C 25.210938 7.910156 25.289063 7.910156 25.367188 7.898438 L 30.132813 6.398438 C 30.554688 6.273438 30.796875 5.835938 30.671875 5.414063 C 30.546875 4.992188 30.109375 4.75 29.6875 4.875 L 24.921875 6.375 C 24.492188 6.4375 24.195313 6.84375 24.257813 7.273438 C 24.324219 7.707031 24.726563 8 25.15625 7.9375 Z "/>
</g>
</svg>
